<svg width="32" height="32" viewBox="0 0 32 32" fill="none" xmlns="http://www.w3.org/2000/svg">
<g clip-path="url(#clip0)">
<path d="M18.4834 15.5139C18.4834 17.1539 17.1539 18.4834 15.5139 18.4834C13.8739 18.4834 12.5445 17.1539 12.5445 15.5139C12.5445 13.8739 13.8739 12.5444 15.5139 12.5444C17.1539 12.5444 18.4834 13.8739 18.4834 15.5139Z" fill="#6C6B6B"/>
<path d="M22.4584 10.26C22.3157 9.8732 22.088 9.52309 21.792 9.23571C21.5047 8.9398 21.1548 8.71207 20.7677 8.56933C20.4539 8.44742 19.9823 8.30231 19.1138 8.26277C18.1742 8.21993 17.8925 8.21069 15.5139 8.21069C13.1351 8.21069 12.8534 8.21969 11.914 8.26254C11.0455 8.30231 10.5737 8.44742 10.2601 8.56933C9.87302 8.71207 9.52291 8.9398 9.23576 9.23571C8.93986 9.52309 8.71213 9.87297 8.56915 10.26C8.44723 10.5739 8.30212 11.0457 8.26259 11.9142C8.21974 12.8536 8.21051 13.1353 8.21051 15.5141C8.21051 17.8927 8.21974 18.1744 8.26259 19.1139C8.30212 19.9825 8.44723 20.454 8.56915 20.7679C8.71213 21.155 8.93962 21.5049 9.23552 21.7922C9.52291 22.0881 9.87278 22.3159 10.2598 22.4586C10.5737 22.5808 11.0455 22.7259 11.914 22.7654C12.8534 22.8083 13.1348 22.8172 15.5137 22.8172C17.8927 22.8172 18.1744 22.8083 19.1135 22.7654C19.9821 22.7259 20.4539 22.5808 20.7677 22.4586C21.5447 22.1589 22.1587 21.5449 22.4584 20.7679C22.5803 20.454 22.7254 19.9825 22.7652 19.1139C22.8081 18.1744 22.8171 17.8927 22.8171 15.5141C22.8171 13.1353 22.8081 12.8536 22.7652 11.9142C22.7257 11.0457 22.5806 10.5739 22.4584 10.26V10.26ZM15.5139 20.0883C12.9874 20.0883 10.9392 18.0404 10.9392 15.5139C10.9392 12.9873 12.9874 10.9394 15.5139 10.9394C18.0402 10.9394 20.0883 12.9873 20.0883 15.5139C20.0883 18.0404 18.0402 20.0883 15.5139 20.0883ZM20.2692 11.8276C19.6788 11.8276 19.2002 11.3489 19.2002 10.7585C19.2002 10.1682 19.6788 9.68951 20.2692 9.68951C20.8596 9.68951 21.3382 10.1682 21.3382 10.7585C21.338 11.3489 20.8596 11.8276 20.2692 11.8276Z" fill="#6C6B6B"/>
<path d="M15.5139 0C6.94713 0 0 6.94713 0 15.5139C0 24.0807 6.94713 31.0278 15.5139 31.0278C24.0807 31.0278 31.0278 24.0807 31.0278 15.5139C31.0278 6.94713 24.0807 0 15.5139 0ZM24.3686 19.1867C24.3255 20.135 24.1747 20.7824 23.9545 21.3492C23.4917 22.5458 22.5458 23.4917 21.3492 23.9545C20.7827 24.1747 20.135 24.3252 19.1869 24.3686C18.2369 24.4119 17.9335 24.4223 15.5142 24.4223C13.0946 24.4223 12.7914 24.4119 11.8411 24.3686C10.8931 24.3252 10.2454 24.1747 9.67892 23.9545C9.08427 23.7308 8.54596 23.3802 8.10092 22.9269C7.64783 22.4821 7.29724 21.9436 7.07354 21.3492C6.85338 20.7827 6.70259 20.135 6.65951 19.1869C6.61571 18.2367 6.60553 17.9332 6.60553 15.5139C6.60553 13.0946 6.61571 12.7911 6.65927 11.8411C6.70235 10.8928 6.85291 10.2454 7.07306 9.67868C7.29677 9.08427 7.64759 8.54572 8.10092 8.10092C8.54572 7.64759 9.08427 7.297 9.67868 7.0733C10.2454 6.85315 10.8928 6.70259 11.8411 6.65927C12.7911 6.61595 13.0946 6.60553 15.5139 6.60553C17.9332 6.60553 18.2367 6.61595 19.1867 6.65951C20.135 6.70259 20.7824 6.85315 21.3492 7.07306C21.9436 7.29677 22.4821 7.64759 22.9271 8.10092C23.3802 8.54596 23.7311 9.08427 23.9545 9.67868C24.1749 10.2454 24.3255 10.8928 24.3688 11.8411C24.4121 12.7911 24.4223 13.0946 24.4223 15.5139C24.4223 17.9332 24.4121 18.2367 24.3686 19.1867V19.1867Z" fill="#6C6B6B"/>
</g>
<defs>
<clipPath id="clip0">
<rect width="31.0278" height="31.0278" fill="white"/>
</clipPath>
</defs>
</svg>
