<svg width="33" height="32" viewBox="0 0 33 32" fill="none" xmlns="http://www.w3.org/2000/svg">
<g clip-path="url(#clip0)">
<path d="M16.2636 0C7.54387 0 0.472687 6.94713 0.472687 15.5139C0.472687 24.0807 7.54387 31.0278 16.2636 31.0278C24.9834 31.0278 32.0546 24.0807 32.0546 15.5139C32.0546 6.94713 24.9834 0 16.2636 0ZM23.4736 12.0961C23.4806 12.2488 23.484 12.4022 23.484 12.5563C23.484 17.2616 19.8384 22.6876 13.1715 22.6878H13.1718H13.1715C11.1246 22.6878 9.21992 22.0984 7.61591 21.0883C7.89951 21.1212 8.18817 21.1375 8.48044 21.1375C10.1787 21.1375 11.7415 20.5684 12.9821 19.6133C11.3955 19.5844 10.0577 18.5549 9.59605 17.14C9.817 17.1816 10.0442 17.2044 10.2772 17.2044C10.608 17.2044 10.9285 17.1606 11.2331 17.0789C9.5746 16.7527 8.32527 15.3127 8.32527 13.5884C8.32527 13.5723 8.32527 13.5579 8.32575 13.543C8.81416 13.8097 9.37268 13.9702 9.96735 13.9882C8.99415 13.3503 8.35443 12.2597 8.35443 11.0242C8.35443 10.3718 8.53394 9.76059 8.84524 9.23435C10.6326 11.389 13.3038 12.806 16.3162 12.9549C16.254 12.6941 16.222 12.4223 16.222 12.143C16.222 10.1772 17.8452 8.58241 19.8468 8.58241C20.8894 8.58241 21.831 9.01538 22.4925 9.70756C23.3182 9.54753 24.0936 9.25116 24.794 8.84328C24.5229 9.67442 23.9485 10.3718 23.2001 10.8128C23.9333 10.7267 24.6321 10.5356 25.2815 10.252C24.7964 10.9662 24.1813 11.5935 23.4736 12.0961V12.0961Z" fill="#6C6B6B"/>
</g>
<defs>
<clipPath id="clip0">
<rect width="31.5819" height="31.0278" fill="white" transform="translate(0.472687)"/>
</clipPath>
</defs>
</svg>
