<svg width="40" height="40" viewBox="0 0 40 40" fill="none" xmlns="http://www.w3.org/2000/svg">
<g clip-path="url(#clip0)" filter="url(#filter0_d)">
<path d="M22.5148 30.8259C22.3856 30.847 22.2559 30.8664 22.1257 30.8842C22.2559 30.8664 22.3856 30.847 22.5148 30.8259Z" fill="#6C6B6B"/>
<path d="M22.8252 30.7729C22.7634 30.7843 22.7016 30.7947 22.6398 30.8054C22.7016 30.7947 22.7634 30.7843 22.8252 30.7729Z" fill="#6C6B6B"/>
<path d="M21.7791 30.9272C21.6279 30.9443 21.4757 30.9594 21.323 30.9722C21.4757 30.9594 21.6279 30.9443 21.7791 30.9272Z" fill="#6C6B6B"/>
<path d="M22.0772 30.8909C22.0045 30.9006 21.9313 30.9096 21.8584 30.9181C21.9313 30.9096 22.0045 30.9006 22.0772 30.8909Z" fill="#6C6B6B"/>
<path d="M23.2484 30.689C23.1937 30.7006 23.1387 30.7123 23.0837 30.7235C23.1387 30.7123 23.1937 30.7006 23.2484 30.689Z" fill="#6C6B6B"/>
<path d="M24.2965 30.4287C24.2522 30.4413 24.2079 30.4532 24.1636 30.4656C24.2079 30.4532 24.2522 30.4413 24.2965 30.4287Z" fill="#6C6B6B"/>
<path d="M23.9796 30.5154C23.9315 30.528 23.8832 30.5409 23.8348 30.553C23.8832 30.5409 23.9315 30.5282 23.9796 30.5154Z" fill="#6C6B6B"/>
<path d="M23.5649 30.6189C23.5139 30.6308 23.4625 30.642 23.4111 30.6534C23.4625 30.642 23.5139 30.6308 23.5649 30.6189Z" fill="#6C6B6B"/>
<path d="M21.318 30.9727C21.2363 30.9795 21.1546 30.9857 21.0727 30.9911C21.1546 30.9857 21.2363 30.9795 21.318 30.9727Z" fill="#6C6B6B"/>
<path d="M35.5273 15.5139C35.5273 6.94713 28.5802 0 20.0134 0C11.4466 0 4.49948 6.94713 4.49948 15.5139C4.49948 24.0807 11.4466 31.0278 20.0134 31.0278C20.1045 31.0278 20.1952 31.0259 20.2861 31.0243V18.9474H16.953V15.063H20.2861V12.2045C20.2861 8.88944 22.3099 7.08514 25.267 7.08514C26.6831 7.08514 27.9003 7.19071 28.2552 7.23782V10.7025H26.216C24.6073 10.7025 24.2957 11.4671 24.2957 12.589V15.063H28.1425L27.6411 18.9474H24.2957V30.4284C30.7803 28.5695 35.5273 22.5953 35.5273 15.5139Z" fill="#6C6B6B"/>
<path d="M21.0384 30.9932C20.877 31.0036 20.7148 31.0119 20.5522 31.0173C20.7148 31.0119 20.877 31.0036 21.0384 30.9932Z" fill="#6C6B6B"/>
<path d="M20.5439 31.0178C20.4582 31.0207 20.3723 31.0228 20.2863 31.0242C20.3723 31.0228 20.4582 31.0207 20.5439 31.0178Z" fill="#6C6B6B"/>
</g>
<defs>
<filter id="filter0_d" x="0.499481" y="0" width="39.0278" height="39.0278" filterUnits="userSpaceOnUse" color-interpolation-filters="sRGB">
<feFlood flood-opacity="0" result="BackgroundImageFix"/>
<feColorMatrix in="SourceAlpha" type="matrix" values="0 0 0 0 0 0 0 0 0 0 0 0 0 0 0 0 0 0 127 0"/>
<feOffset dy="4"/>
<feGaussianBlur stdDeviation="2"/>
<feColorMatrix type="matrix" values="0 0 0 0 0 0 0 0 0 0 0 0 0 0 0 0 0 0 0.25 0"/>
<feBlend mode="normal" in2="BackgroundImageFix" result="effect1_dropShadow"/>
<feBlend mode="normal" in="SourceGraphic" in2="effect1_dropShadow" result="shape"/>
</filter>
<clipPath id="clip0">
<rect width="31.0278" height="31.0278" fill="white" transform="translate(4.49948)"/>
</clipPath>
</defs>
</svg>
