<svg width="32" height="32" viewBox="0 0 32 32" fill="none" xmlns="http://www.w3.org/2000/svg">
<g clip-path="url(#clip0)">
<path d="M14.5537 18.4204L19.6002 15.5139L14.5537 12.6074V18.4204Z" fill="#6C6B6B"/>
<path d="M16.4861 0C7.91929 0 0.972168 6.94713 0.972168 15.5139C0.972168 24.0807 7.91929 31.0278 16.4861 31.0278C25.0529 31.0278 32 24.0807 32 15.5139C32 6.94713 25.0529 0 16.4861 0ZM26.1799 15.5298C26.1799 15.5298 26.1799 18.6761 25.7808 20.1932C25.5571 21.0237 24.9023 21.6784 24.0719 21.9019C22.5547 22.3013 16.4861 22.3013 16.4861 22.3013C16.4861 22.3013 10.4333 22.3013 8.90028 21.886C8.06985 21.6626 7.41507 21.0076 7.19137 20.1771C6.79202 18.6761 6.79202 15.5139 6.79202 15.5139C6.79202 15.5139 6.79202 12.3679 7.19137 10.8507C7.41484 10.0203 8.08571 9.3494 8.90028 9.12593C10.4174 8.72658 16.4861 8.72658 16.4861 8.72658C16.4861 8.72658 22.5547 8.72658 24.0719 9.14179C24.9023 9.36526 25.5571 10.0203 25.7808 10.8507C26.196 12.3679 26.1799 15.5298 26.1799 15.5298V15.5298Z" fill="#6C6B6B"/>
</g>
<defs>
<clipPath id="clip0">
<rect width="31.0278" height="31.0278" fill="white" transform="translate(0.972168)"/>
</clipPath>
</defs>
</svg>
